<svg xmlns="http://www.w3.org/2000/svg" viewBox="0 0 300 300" fill="none">
  <path stroke="#007bff" stroke-width="15" stroke-miterlimit="10" d="M150 14c75.1 0 136 60.9 136 136s-60.9 136-136 136S14 225.1 14 150 74.9 14 150 14z"/>
  <path stroke="#007bff" stroke-width="15" stroke-miterlimit="10" d="M150 14c-45 0-82 60.9-82 136s37 136 82 136 82-60.9 82-136-37-136-82-136z"/>
  <path stroke="#007bff" stroke-width="15" stroke-miterlimit="10" d="M14 150c0-45 60.9-82 136-82s136 37 136 82-60.9 82-136 82-136-37-136-82z"/>
</svg>
